<?xml version="1.0" encoding="UTF-8"?>
<svg version="1.1" xmlns="http://www.w3.org/2000/svg" width="128" height="128">
<path d="M0 0 C0.9045694 -0.00335861 1.80913879 -0.00671722 2.74111938 -0.01017761 C5.73270032 -0.01967902 8.72422522 -0.02163048 11.71582031 -0.02270508 C13.7984418 -0.02591879 15.88106307 -0.02928295 17.96368408 -0.03279114 C22.33158898 -0.03878078 26.6994741 -0.04063126 31.06738281 -0.04003906 C36.65361066 -0.03993758 42.239711 -0.05357625 47.82590866 -0.07081127 C52.12913592 -0.0819532 56.43233261 -0.08395758 60.73557281 -0.08342934 C62.79436939 -0.08460666 64.85316682 -0.08901453 66.91194916 -0.0967617 C69.79815986 -0.1066035 72.68409702 -0.10366674 75.5703125 -0.09765625 C76.41423553 -0.10327576 77.25815857 -0.10889526 78.12765503 -0.11468506 C90.81134415 -0.04786125 90.81134415 -0.04786125 95.03222656 4.09838867 C95.46921875 4.85635742 95.90621094 5.61432617 96.35644531 6.39526367 C96.80632812 7.14291992 97.25621094 7.89057617 97.71972656 8.66088867 C98.15671875 9.48073242 98.59371094 10.30057617 99.04394531 11.14526367 C99.55726913 11.99775696 100.07059296 12.85025024 100.59947205 13.72857666 C102.43432667 18.06865279 102.48726391 21.63638606 102.47973633 26.29663086 C102.48981216 27.19827972 102.499888 28.09992859 102.51026917 29.02890015 C102.53868938 32.00010697 102.5446231 34.9708045 102.54785156 37.94213867 C102.5574981 40.01711228 102.56759099 42.09208385 102.57810974 44.16705322 C102.59605723 48.51465583 102.60163232 52.86207977 102.59985352 57.2097168 C102.59954905 62.76248326 102.6404721 68.31409535 102.69217014 73.86658859 C102.72564119 78.15278309 102.73160775 82.43870196 102.73002434 86.72501373 C102.73354929 88.77102887 102.74673343 90.81705229 102.77002144 92.86293793 C102.97367468 112.60489594 102.97367468 112.60489594 96.04394531 121.14526367 C95.69936783 121.86155945 95.35479034 122.57785522 94.99977112 123.31585693 C94.04394531 125.14526367 94.04394531 125.14526367 91.66894531 126.33276367 C86.38106934 127.96948719 81.62276241 128.29347132 76.08789062 128.29052734 C75.18332123 128.29388596 74.27875183 128.29724457 73.34677124 128.30070496 C70.3551903 128.31020636 67.36366541 128.31215783 64.37207031 128.31323242 C62.28944882 128.31644613 60.20682756 128.31981029 58.12420654 128.32331848 C53.75630165 128.32930812 49.38841653 128.33115861 45.02050781 128.33056641 C39.43427997 128.33046492 33.84817963 128.34410359 28.26198196 128.36133862 C23.9587547 128.37248054 19.65555802 128.37448492 15.35231781 128.37395668 C13.29352124 128.37513401 11.2347238 128.37954187 9.17594147 128.38728905 C6.28973077 128.39713085 3.40379361 128.39419408 0.51757812 128.38818359 C-0.32634491 128.3938031 -1.17026794 128.39942261 -2.0397644 128.4052124 C-14.72345352 128.33838859 -14.72345352 128.33838859 -18.94433594 124.19213867 C-19.38132812 123.43416992 -19.81832031 122.67620117 -20.26855469 121.89526367 C-20.7184375 121.14760742 -21.16832031 120.39995117 -21.63183594 119.62963867 C-22.06882812 118.80979492 -22.50582031 117.98995117 -22.95605469 117.14526367 C-23.46937851 116.29277039 -23.98270233 115.4402771 -24.51158142 114.56195068 C-26.34643604 110.22187455 -26.39937329 106.65414128 -26.3918457 101.99389648 C-26.40192154 101.09224762 -26.41199738 100.19059875 -26.42237854 99.2616272 C-26.45079875 96.29042038 -26.45673247 93.31972284 -26.45996094 90.34838867 C-26.46960748 88.27341507 -26.47970036 86.19844349 -26.49021912 84.12347412 C-26.5081666 79.77587152 -26.51374169 75.42844757 -26.51196289 71.08081055 C-26.51165843 65.52804409 -26.55258148 59.976432 -26.60427952 54.42393875 C-26.63775057 50.13774425 -26.64371713 45.85182539 -26.64213371 41.56551361 C-26.64565866 39.51949848 -26.6588428 37.47347505 -26.68213081 35.42758942 C-26.88578405 15.68563141 -26.88578405 15.68563141 -19.95605469 7.14526367 C-19.6114772 6.4289679 -19.26689972 5.71267212 -18.91188049 4.97467041 C-17.95605469 3.14526367 -17.95605469 3.14526367 -15.58105469 1.95776367 C-10.29317871 0.32104016 -5.53487178 -0.00294398 0 0 Z " fill="#FDFDFD" transform="translate(25.9560546875,-0.145263671875)"/>
<path d="M0 0 C7.26 0 14.52 0 22 0 C31 21.25 31 21.25 31 25 C21.1 25.495 21.1 25.495 11 26 C10.14450562 28.34714111 10.14450562 28.34714111 9.27172852 30.74169922 C7.1614345 36.53054762 5.04958421 42.31882723 2.93725586 48.10693359 C2.02198105 50.61519337 1.10740078 53.12370332 0.19311523 55.63232422 C-1.1188423 59.23185214 -2.43231511 62.83082393 -3.74609375 66.4296875 C-4.15653427 67.55680145 -4.56697479 68.68391541 -4.98985291 69.84518433 C-5.37017166 70.88611237 -5.75049042 71.92704041 -6.14233398 72.99951172 C-6.64530251 74.37851151 -6.64530251 74.37851151 -7.15843201 75.78536987 C-8 78 -8 78 -9 80 C-15.6 80 -22.2 80 -29 80 C-27.44786209 74.60836305 -25.7848693 69.2956423 -23.88671875 64.015625 C-23.44545654 62.78763184 -23.00419434 61.55963867 -22.54956055 60.29443359 C-22.03316621 58.86291033 -21.51663655 57.43143587 -21 56 C-20.70791656 55.18944153 -20.41583313 54.37888306 -20.11489868 53.54376221 C-18.10308252 47.96173503 -16.08459714 42.38215589 -14.06152344 36.80419922 C-13.35269402 34.84823434 -12.6450152 32.89185212 -11.93847656 30.93505859 C-8.17759081 20.52043186 -4.38997526 10.16896612 0 0 Z " fill="#0D0D0D" transform="translate(53,24)"/>
<path d="M0 0 C5.94 0 11.88 0 18 0 C20.10317065 5.56710416 22.20266161 11.13557707 24.29882812 16.70532227 C25.01169729 18.59795108 25.72555178 20.49020909 26.44042969 22.38208008 C27.47072553 25.10920715 28.49741271 27.83766987 29.5234375 30.56640625 C29.84122162 31.40522842 30.15900574 32.2440506 30.48641968 33.10829163 C30.7865799 33.90859299 31.08674011 34.70889435 31.39599609 35.53344727 C31.65802826 36.22849869 31.92006042 36.92355011 32.19003296 37.6396637 C33.24740308 40.72096079 34.10504882 43.86767087 35 47 C29.06 47 23.12 47 17 47 C14.33333333 40.33333333 11.66666667 33.66666667 9 27 C8.01811439 29.58232914 7.03940411 32.16578683 6.0625 34.75 C5.78470703 35.47960937 5.50691406 36.20921875 5.22070312 36.9609375 C4.95322266 37.66992188 4.68574219 38.37890625 4.41015625 39.109375 C4.16402588 39.75874023 3.91789551 40.40810547 3.66430664 41.07714844 C2.99465208 43.01547968 2.49737932 45.01048271 2 47 C-4.27 47 -10.54 47 -17 47 C-14.39416413 37.61711615 -10.88889634 28.63243494 -7.375 19.5625 C-6.477307 17.23567396 -5.5806456 14.90845365 -4.68447876 12.58103943 C-4.13023671 11.14267117 -3.57492459 9.70471464 -3.0184021 8.26722717 C-1.9586552 5.52511344 -0.92981614 2.78944843 0 0 Z " fill="#0E0E0E" transform="translate(69,57)"/>
<path d="M0 0 C7.26 0 14.52 0 22 0 C22 0.33 22 0.66 22 1 C21.40985107 1.00410889 20.81970215 1.00821777 20.21166992 1.01245117 C17.53592984 1.04536148 14.86247525 1.11599621 12.1875 1.1875 C10.7943457 1.19620117 10.7943457 1.19620117 9.37304688 1.20507812 C6.81775164 1.28810216 4.48790442 1.40649715 2 2 C-0.23029411 4.35953319 -0.23029411 4.35953319 -1 7 C-1.33 6.01 -1.66 5.02 -2 4 C-1.34 2.68 -0.68 1.36 0 0 Z " fill="#1A1A1A" transform="translate(53,24)"/>
<path d="M0 0 C0.66 1.32 1.32 2.64 2 4 C7.61 4 13.22 4 19 4 C19 4.33 19 4.66 19 5 C12.4 5 5.8 5 -1 5 C-0.67 3.35 -0.34 1.7 0 0 Z " fill="#202020" transform="translate(25,99)"/>
<path d="M0 0 C0.99 0.33 1.98 0.66 3 1 C3 1.66 3 2.32 3 3 C-3.6 3 -10.2 3 -17 3 C-17 2.67 -17 2.34 -17 2 C-15.85660156 1.93941406 -14.71320313 1.87882812 -13.53515625 1.81640625 C-12.04425695 1.73201572 -10.55337225 1.64736698 -9.0625 1.5625 C-8.30775391 1.52318359 -7.55300781 1.48386719 -6.77539062 1.44335938 C-3.08055813 1.55961976 -3.08055813 1.55961976 0 0 Z " fill="#191919" transform="translate(81,46)"/>
<path d="M0 0 C2 1 2 1 2 1 Z " fill="#FFFFFF" transform="translate(113,127)"/>
<path d="M0 0 C2 1 2 1 2 1 Z " fill="#FFFFFF" transform="translate(13,127)"/>
<path d="" fill="#FFFFFF" transform="translate(0,0)"/>
<path d="" fill="#FFFFFF" transform="translate(0,0)"/>
<path d="" fill="#FFFFFF" transform="translate(0,0)"/>
<path d="" fill="#FFFFFF" transform="translate(0,0)"/>
<path d="" fill="#FFFFFF" transform="translate(0,0)"/>
<path d="" fill="#FFFFFF" transform="translate(0,0)"/>
<path d="" fill="#FFFFFF" transform="translate(0,0)"/>
<path d="" fill="#FFFFFF" transform="translate(0,0)"/>
<path d="" fill="#FFFFFF" transform="translate(0,0)"/>
<path d="" fill="#FFFFFF" transform="translate(0,0)"/>
<path d="" fill="#FFFFFF" transform="translate(0,0)"/>
<path d="" fill="#FFFFFF" transform="translate(0,0)"/>
<path d="M0 0 C2 1 2 1 2 1 Z " fill="#FFFFFF" transform="translate(113,0)"/>
<path d="M0 0 C2 1 2 1 2 1 Z " fill="#FFFFFF" transform="translate(13,0)"/>
<path d="" fill="#FFFFFF" transform="translate(0,0)"/>
<path d="" fill="#FFFFFF" transform="translate(0,0)"/>
<path d="" fill="#FFFFFF" transform="translate(0,0)"/>
<path d="" fill="#FFFFFF" transform="translate(0,0)"/>
<path d="" fill="#FFFFFF" transform="translate(0,0)"/>
<path d="" fill="#FFFFFF" transform="translate(0,0)"/>
<path d="" fill="#FFFFFF" transform="translate(0,0)"/>
<path d="" fill="#FFFFFF" transform="translate(0,0)"/>
<path d="" fill="#FFFFFF" transform="translate(0,0)"/>
<path d="" fill="#FFFFFF" transform="translate(0,0)"/>
<path d="" fill="#FFFFFF" transform="translate(0,0)"/>
<path d="" fill="#FFFFFF" transform="translate(0,0)"/>
<path d="" fill="#FFFFFF" transform="translate(0,0)"/>
<path d="" fill="#FFFFFF" transform="translate(0,0)"/>
<path d="" fill="#FFFFFF" transform="translate(0,0)"/>
<path d="" fill="#FFFFFF" transform="translate(0,0)"/>
</svg>
